<svg data-name="Vrstva 1" xmlns="http://www.w3.org/2000/svg" width="24" height="24"><rect id="backgroundrect" width="100%" height="100%" x="0" y="0" fill="none" stroke="none"/><defs><style>.\36 a6feb43-4977-4a99-a2c4-06f44952547c{fill:#fff;}.\30 f7e58bf-2607-4c16-b4c7-2866d351fadd,.\36 a6feb43-4977-4a99-a2c4-06f44952547c,.dc329aae-a0a7-4c7a-87ca-e790f0735b50{fill-rule:evenodd;}.dc329aae-a0a7-4c7a-87ca-e790f0735b50{fill:#2f2483;}.\30 f7e58bf-2607-4c16-b4c7-2866d351fadd{fill:#008acc;}</style></defs><title>logo-spstrutnov</title><g class="currentLayer" style=""><title>Layer 1</title><path class="6a6feb43-4977-4a99-a2c4-06f44952547c" d="M11.999943733215332,24.001462936401367 a12.000049591064453,12.000049591064453 0 1 0 -12,-11.999899864196777 A12.023170471191406,12.023170471191406 0 0 0 11.999943733215332,24.001462936401367 z" id="svg_1"/><path class="6a6feb43-4977-4a99-a2c4-06f44952547c" d="M1.1602437496185303,11.157362937927246 l9.688199996948242,-3.5302000045776367 l4.537700176239014,-1.6532000303268433 v2.1928999423980713 l5.67579984664917,-2.1572000980377197 A10.796070098876953,10.796070098876953 0 0 1 22.8713436126709,12.001562118530273 q0,0.27900001406669617 -0.0142000000923872,0.5544999837875366 l-9.666999816894531,3.6742000579833984 l-4.577400207519531,1.7395999431610107 V15.630762100219727 l-5.829999923706055,2.124300003051758 A10.793780326843262,10.793780326843262 0 0 1 1.127943754196167,12.001562118530273 Q1.127943754196167,11.575562477111816 1.1602437496185303,11.157362937927246 z" id="svg_2"/><path class="dc329aae-a0a7-4c7a-87ca-e790f0735b50" d="M1.411043643951416,14.469362258911133 L11.93834400177002,10.633562088012695 l0.24130000174045563,-0.08789999783039093 v2.262399911880493 l10.243200302124023,-3.893399953842163 c0.0340999998152256,0.11509999632835388 0.06689999997615814,0.23070000112056732 0.09730000048875809,0.3472000062465668 L12.062843322753906,13.236662864685059 l-0.24320000410079956,0.09239999949932098 V11.058762550354004 L1.4995436668395996,14.819162368774414 C1.468343734741211,14.703561782836914 1.4382438659667969,14.586763381958008 1.411043643951416,14.469362258911133 z" id="svg_3"/><path class="dc329aae-a0a7-4c7a-87ca-e790f0735b50" d="M1.144643783569336,12.604162216186523 l12.593500137329102,-4.588699817657471 l0.24120000004768372,-0.08789999783039093 v2.262700080871582 l7.784800052642822,-2.9591000080108643 c0.05299999937415123,0.10769999772310257 0.10429999977350235,0.2160000056028366 0.15360000729560852,0.3257000148296356 L13.862543106079102,10.618562698364258 l-0.24320000410079956,0.09239999949932098 v-2.2699999809265137 L1.1718437671661377,12.976362228393555 C1.161043643951416,12.853062629699707 1.1514437198638916,12.728962898254395 1.144643783569336,12.604162216186523 z" id="svg_4"/><path class="dc329aae-a0a7-4c7a-87ca-e790f0735b50" d="M1.9831438064575195,16.22376251220703 l8.154999732971191,-2.97160005569458 l0.24120000004768372,-0.08780000358819962 v2.2625999450683594 l12.414299964904785,-4.718599796295166 q0.022199999541044235,0.1837500035762787 0.037700001150369644,0.36970001459121704 L10.262543678283691,15.855262756347656 l-0.24320000410079956,0.09239999949932098 v-2.2699999809265137 L2.1296439170837402,16.552562713623047 C2.0792436599731445,16.443761825561523 2.0301437377929688,16.334562301635742 1.9831438064575195,16.22376251220703 z" id="svg_5"/><path class="0f7e58bf-2607-4c16-b4c7-2866d351fadd" d="M1.1602437496185303,11.157362937927246 l9.688199996948242,-3.5302000045776367 l4.537700176239014,-1.6532000303268433 v2.1928999423980713 l5.67579984664917,-2.1572000980377197 A10.86581039428711,10.86581039428711 0 0 0 1.1602437496185303,11.157362937927246 z" id="svg_6"/><path class="0f7e58bf-2607-4c16-b4c7-2866d351fadd" d="M22.85714340209961,12.556062698364258 l-9.666999816894531,3.6742000579833984 l-4.577400207519531,1.7395999431610107 V15.630762100219727 l-5.829999923706055,2.124300003051758 a10.866490364074707,10.866490364074707 0 0 0 20.074399948120117,-5.198999881744385 z" id="svg_7"/><path class="6a6feb43-4977-4a99-a2c4-06f44952547c" d="M30.713043212890625,5.399962425231934 a3.7330000400543213,3.7330000400543213 0 0 0 -1.180299997329712,-0.17720000445842743 c-0.870199978351593,0 -1.7245999574661255,0.4025000035762787 -1.7245999574661255,1.5058000087738037 c0,1.6325000524520874 2.1628000736236572,1.2436000108718872 2.1628000736236572,2.1840999126434326 c0,0.4449999928474426 -0.5023000240325928,0.6358000040054321 -0.8766999840736389,0.6358000040054321 a2.379080057144165,2.379080057144165 0 0 1 -1.1166000366210938,-0.30390000343322754 l-0.09210000187158585,0.8901000022888184 a4.306509971618652,4.306509971618652 0 0 0 1.264799952507019,0.19189999997615814 c0.9966999888420105,0 1.8522000312805176,-0.41040000319480896 1.8522000312805176,-1.4912999868392944 c0,-1.6548999547958374 -2.162899971008301,-1.2936999797821045 -2.162899971008301,-2.149199962615967 a0.6862900257110596,0.6862900257110596 0 0 1 0.7770000100135803,-0.6851999759674072 a2.553999900817871,2.553999900817871 0 0 1 1.0046000480651855,0.21209999918937683 l0.09179999679327011,-0.8130000233650208 zm1.4127999544143677,3.746000051498413 a1.071120023727417,1.071120023727417 0 0 0 1.1526000499725342,1.1806000471115112 a2.509000062942505,2.509000062942505 0 0 0 0.6995999813079834,-0.08529999852180481 l-0.02810000069439411,-0.7488999962806702 a0.8402500152587891,0.8402500152587891 0 0 1 -0.43140000104904175,0.09860000014305115 c-0.36000001430511475,0 -0.44530001282691956,-0.2890999913215637 -0.44530001282691956,-0.6008999943733215 V7.29376220703125 h0.8410000205039978 V6.6006622314453125 h-0.8410000205039978 V5.569162368774414 l-0.9473999738693237,0.30390000343322754 v0.7275999784469604 h-0.6995999813079834 v0.6930999755859375 h0.6995999813079834 v1.8522000312805176 zm2.45989990234375,1.0952999591827393 h0.9473999738693237 V8.905862808227539 c0,-0.5235999822616577 0,-1.4842000007629395 0.7702000141143799,-1.4842000007629395 a0.9696900248527527,0.9696900248527527 0 0 1 0.42399999499320984,0.07729999721050262 V6.544862747192383 a1.041260004043579,1.041260004043579 0 0 0 -0.28940001130104065,-0.02810000069439411 a1.1127099990844727,1.1127099990844727 0 0 0 -0.9966999888420105,0.9114000201225281 h-0.014700000174343586 V6.6006622314453125 h-0.8407999873161316 v3.6405999660491943 zm1.5190999507904053,-4.134900093078613 l0.6995999813079834,-1.031499981880188 h-0.6287000179290771 l-0.4799000024795532,0.6222000122070312 l-0.4810999929904938,-0.6222000122070312 H34.57134246826172 l0.6995999813079834,1.031499981880188 zm1.753499984741211,1.9575999975204468 a0.8240000009536743,0.8240000009536743 0 0 1 0.8410999774932861,-0.8543999791145325 c0.5303000211715698,0 0.7421000003814697,0.39570000767707825 0.7702000141143799,0.8543999791145325 zm2.248199939727783,1.2019000053405762 a2.4563400745391846,2.4563400745391846 0 0 1 -1.2086999416351318,0.3675999939441681 a0.9513499736785889,0.9513499736785889 0 0 1 -1.0394999980926514,-0.9192000031471252 h2.5160999298095703 c0,-1.271399974822998 -0.3813000023365021,-2.197499990463257 -1.7310999631881714,-2.197499990463257 a1.7022299766540527,1.7022299766540527 0 0 0 -1.6894999742507935,1.9217000007629395 A1.7300000190734863,1.7300000190734863 0 0 0 38.855342864990234,10.326562881469727 a2.5028200149536133,2.5028200149536133 0 0 0 1.2511999607086182,-0.2904999852180481 v-0.7702000141143799 zm1.766800045967102,-0.8554999828338623 c0,-0.4875999987125397 0.16949999332427979,-1.1593999862670898 0.7838000059127808,-1.1593999862670898 c0.6078000068664551,0 0.8486999869346619,0.6503000259399414 0.8486999869346619,1.1593999862670898 c0,0.5159000158309937 -0.20520000159740448,1.1806000471115112 -0.8342000246047974,1.1806000471115112 c-0.6222000122070312,0 -0.79830002784729,-0.6783000230789185 -0.79830002784729,-1.1806000471115112 zm1.6674000024795532,1.830899953842163 h0.9192000031471252 V4.940462589263916 h-0.9473000168800354 V7.025662422180176 h-0.014700000174343586 a1.2913999557495117,1.2913999557495117 0 0 0 -1.087399959564209,-0.508899986743927 c-1.1168999671936035,0 -1.5269999504089355,0.8901000022888184 -1.5269999504089355,1.8935999870300293 c0,0.9965999722480774 0.4101000130176544,1.916200041770935 1.5269999504089355,1.916200041770935 a1.3511699438095093,1.3511699438095093 0 0 0 1.1166000366210938,-0.49549999833106995 h0.01360000018030405 v0.41019999980926514 zm1.8946000337600708,0 h0.9473999738693237 V8.459662437438965 c0,-0.46630001068115234 0.14820000529289246,-1.2086999416351318 0.8342000246047974,-1.2086999416351318 c0.6078000068664551,0 0.6146000027656555,0.6010000109672546 0.6146000027656555,1.0463000535964966 v1.944000005722046 h0.9473000168800354 V7.944062232971191 c0,-0.8198000192642212 -0.37439998984336853,-1.427299976348877 -1.2367000579833984,-1.427299976348877 a1.359570026397705,1.359570026397705 0 0 0 -1.195099949836731,0.5796999931335449 h-0.01360000018030405 V6.6006622314453125 H45.43534469604492 v3.6405999660491943 zm5.287499904632568,0 V6.6006622314453125 h-0.9473000168800354 v3.6405999660491943 zm-0.8980000019073486,-4.134900093078613 h0.5864999890327454 l0.9685999751091003,-1.031499981880188 H50.41134262084961 l-0.5864999890327454,1.031499981880188 zm3.8601999282836914,5.6194000244140625 h0.9473999738693237 V9.824262619018555 h0.01360000018030405 a1.2465699911117554,1.2465699911117554 0 0 0 1.067199945449829,0.5023000240325928 c1.138100028038025,0 1.54830002784729,-0.9196000099182129 1.54830002784729,-1.916200041770935 c0,-1.003499984741211 -0.41019999980926514,-1.8935999870300293 -1.5269999504089355,-1.8935999870300293 a1.234089970588684,1.234089970588684 0 0 0 -1.131100058555603,0.6010000109672546 h-0.01360000018030405 V6.6006622314453125 h-0.9047999978065491 v5.125100135803223 zm1.8016999959945679,-4.474800109863281 c0.6157000064849854,0 0.7849000096321106,0.6718000173568726 0.7849000096321106,1.1593999862670898 c0,0.5023000240325928 -0.17599999904632568,1.1806000471115112 -0.7982000112533569,1.1806000471115112 c-0.6290000081062317,0 -0.8342000246047974,-0.6646999716758728 -0.8342000246047974,-1.1806000471115112 c0,-0.5091000199317932 0.24009999632835388,-1.1593999862670898 0.8475000262260437,-1.1593999862670898 zm2.5383999347686768,2.990299940109253 h0.9473999738693237 V8.905862808227539 c0,-0.5235999822616577 0,-1.4842000007629395 0.7703999876976013,-1.4842000007629395 a0.9693300127983093,0.9693300127983093 0 0 1 0.423799991607666,0.07729999721050262 V6.544862747192383 A1.0391499996185303,1.0391499996185303 0 0 0 59.877342224121094,6.516762733459473 a1.1127099990844727,1.1127099990844727 0 0 0 -0.9966999888420105,0.9114000201225281 h-0.014700000174343586 V6.6006622314453125 h-0.8407999873161316 v3.6405999660491943 zm6.071300029754639,-3.6405999660491943 h-0.9473999738693237 v1.781599998474121 c0,0.4666000008583069 -0.14790000021457672,1.2086999416351318 -0.8342000246047974,1.2086999416351318 c-0.607699990272522,0 -0.6144999861717224,-0.6008999943733215 -0.6144999861717224,-1.0460000038146973 V6.6006622314453125 h-0.9473999738693237 v2.297499895095825 c0,0.8206999897956848 0.37450000643730164,1.4284000396728516 1.236799955368042,1.4284000396728516 a1.5215400457382202,1.5215400457382202 0 0 0 1.195099949836731,-0.5796999931335449 h0.01360000018030405 v0.4943999946117401 h0.8980000019073486 V6.6006622314453125 zm-2.4038000106811523,-0.9606000185012817 a0.7555599808692932,0.7555599808692932 0 0 0 0.7569000124931335,0.7488999962806702 a0.7446600198745728,0.7446600198745728 0 0 0 0.7488999962806702,-0.7488999962806702 a0.7545899748802185,0.7545899748802185 0 0 0 -0.7488999962806702,-0.7556999921798706 a0.7656999826431274,0.7656999826431274 0 0 0 -0.7569000124931335,0.7556999921798706 zm0.3824000060558319,0 a0.371069997549057,0.371069997549057 0 1 1 0.37450000643730164,0.3675999939441681 a0.36800000071525574,0.36800000071525574 0 0 1 -0.37450000643730164,-0.3675999939441681 zM65.05734252929688,10.241262435913086 h0.9473999738693237 V8.474462509155273 c0,-0.4731999933719635 0.07739999890327454,-1.2235000133514404 0.7074999809265137,-1.2235000133514404 c0.5436999797821045,0 0.5436999797821045,0.4810999929904938 0.5436999797821045,0.820900022983551 v2.1693999767303467 h0.9473000168800354 V8.474462509155273 c0,-0.4731999933719635 0.07739999890327454,-1.2235000133514404 0.7063999772071838,-1.2235000133514404 c0.5436999797821045,0 0.5436999797821045,0.4810999929904938 0.5436999797821045,0.820900022983551 v2.1693999767303467 h0.9473000168800354 V7.944062232971191 c0,-0.8130000233650208 -0.2542000114917755,-1.427299976348877 -1.1513999700546265,-1.427299976348877 a1.2476099729537964,1.2476099729537964 0 0 0 -1.1377999782562256,0.6424000263214111 a1.0635600090026855,1.0635600090026855 0 0 0 -1.0751999616622925,-0.6424000263214111 a1.281999945640564,1.281999945640564 0 0 0 -1.080899953842163,0.5931000113487244 h-0.014700000174343586 V6.6006622314453125 H65.05734252929688 v3.6405999660491943 zm6.933300018310547,-3.6405999660491943 h-1.0460000038146973 l1.3924000263214111,3.8245999813079834 a0.5921599864959717,0.5921599864959717 0 0 1 -0.614300012588501,0.6502000093460083 a1.3846700191497803,1.3846700191497803 0 0 1 -0.4878000020980835,-0.06400000303983688 l-0.06379999965429306,0.6998000144958496 a2.4006400108337402,2.4006400108337402 0 0 0 0.671500027179718,0.09870000183582306 c0.9898999929428101,0 1.2086999416351318,-0.791700005531311 1.5125999450683594,-1.5967999696731567 l1.364300012588501,-3.612499952316284 h-0.9617999792098999 l-0.8758999705314636,2.658400058746338 H72.86734008789062 l-0.8766999840736389,-2.658400058746338 zm5.520699977874756,0.05050000175833702 a4.351309776306152,4.351309776306152 0 0 0 -1.0326000452041626,-0.13439999520778656 c-0.7421000003814697,0 -1.427299976348877,0.3463999927043915 -1.427299976348877,1.1302000284194946 c0,1.315000057220459 1.6469999551773071,0.8274999856948853 1.6469999551773071,1.5414999723434448 c0,0.3531999886035919 -0.3824000060558319,0.4449999928474426 -0.6222000122070312,0.4449999928474426 a2.0852599143981934,2.0852599143981934 0 0 1 -0.9329000115394592,-0.23980000615119934 l-0.05700000002980232,0.7770000100135803 a4.25,4.25 0 0 0 1.0751999616622925,0.1559000015258789 c0.7702000141143799,0 1.5259000062942505,-0.3398999869823456 1.5259000062942505,-1.187399983406067 c0,-1.315000057220459 -1.6461000442504883,-0.9473999738693237 -1.6461000442504883,-1.5269999504089355 c0,-0.310699999332428 0.30390000343322754,-0.4025999903678894 0.5583999752998352,-0.4025999903678894 a2.328389883041382,2.328389883041382 0 0 1 0.847599983215332,0.15479999780654907 l0.06400000303983688,-0.7131999731063843 zm0.9329000115394592,3.590100049972534 h0.9473999738693237 V4.940462589263916 h-0.9473999738693237 v5.30079984664917 zm1.7107000350952148,-1.7948999404907227 a1.905060052871704,1.905060052871704 0 0 0 3.809799909591675,0 a1.905060052871704,1.905060052871704 0 1 0 -3.809799909591675,0 zm0.9901999831199646,-0.11339999735355377 a0.9277600049972534,0.9277600049972534 0 1 1 1.829699993133545,0 c0,0.607699990272522 -0.1906999945640564,1.2580000162124634 -0.91839998960495,1.2580000162124634 c-0.72079998254776,0 -0.911300003528595,-0.6571000218391418 -0.911300003528595,-1.2580000162124634 zm4.509300231933594,1.9083000421524048 h1.0672999620437622 l1.3422000408172607,-3.6405999660491943 h-0.9462000131607056 l-0.876800000667572,2.650700092315674 h-0.014700000174343586 l-0.9047999978065491,-2.650700092315674 H84.30464172363281 l1.3497999906539917,3.6405999660491943 zm3.1728999614715576,-2.635999917984009 a1.9027899503707886,1.9027899503707886 0 0 1 1.1246999502182007,-0.39570000767707825 c0.5582000017166138,0 0.8195000290870667,0.1973000019788742 0.8195000290870667,0.7838000059127808 h-0.5235000252723694 a2.8874399662017822,2.8874399662017822 0 0 0 -1.222000002861023,0.2117999941110611 a1.070289969444275,1.070289969444275 0 0 0 -0.6225000023841858,1.0393999814987183 a1.1614500284194946,1.1614500284194946 0 0 0 1.2726999521255493,1.0820000171661377 a1.3008500337600708,1.3008500337600708 0 0 0 1.1233999729156494,-0.6290000081062317 h0.014499999582767487 a4.468540191650391,4.468540191650391 0 0 0 0.041600000113248825,0.5436999797821045 h0.8339999914169312 c-0.021299999207258224,-0.2825999855995178 -0.03460000082850456,-0.536899983882904 -0.042500000447034836,-0.8126999735832214 c-0.006800000090152025,-0.26930001378059387 -0.01360000018030405,-0.5440000295639038 -0.01360000018030405,-0.9115999937057495 v-0.46630001068115234 c0,-1.0743999481201172 -0.4595000147819519,-1.5339000225067139 -1.569599986076355,-1.5339000225067139 a3.243000030517578,3.243000030517578 0 0 0 -1.2645000219345093,0.2759000062942505 l0.027799999341368675,0.8126000165939331 zm0.48100000619888306,1.5831999778747559 c0,-0.5583999752998352 0.6290000081062317,-0.6290000081062317 1.0528000593185425,-0.6290000081062317 h0.41040000319480896 a1.2034499645233154,1.2034499645233154 0 0 1 -0.19840000569820404,0.7488999962806702 a0.8037499785423279,0.8037499785423279 0 0 1 -0.6639000177383423,0.32510000467300415 c-0.33959999680519104,0 -0.6008999943733215,-0.13429999351501465 -0.6008999943733215,-0.4449999928474426 zm0.43849998712539673,-3.0820999145507812 h0.5861999988555908 l0.9689000248908997,-1.031499981880188 h-0.9689000248908997 l-0.5861999988555908,1.031499981880188 zm7.0117998123168945,0.5447999835014343 a4.353000164031982,4.353000164031982 0 0 0 -1.0326999425888062,-0.13439999520778656 c-0.7421000003814697,0 -1.4271999597549438,0.3463999927043915 -1.4271999597549438,1.1302000284194946 c0,1.315000057220459 1.6469000577926636,0.8274999856948853 1.6469000577926636,1.5414999723434448 c0,0.3531999886035919 -0.382099986076355,0.4449999928474426 -0.6222000122070312,0.4449999928474426 a2.084359884262085,2.084359884262085 0 0 1 -0.9326000213623047,-0.23980000615119934 l-0.05719999969005585,0.7770000100135803 a4.24852991104126,4.24852991104126 0 0 0 1.0750999450683594,0.1559000015258789 c0.7702000141143799,0 1.5259000062942505,-0.3398999869823456 1.5259000062942505,-1.187399983406067 c0,-1.315000057220459 -1.645799994468689,-0.9473999738693237 -1.645799994468689,-1.5269999504089355 c0,-0.310699999332428 0.30390000343322754,-0.4025999903678894 0.5582000017166138,-0.4025999903678894 a2.3298699855804443,2.3298699855804443 0 0 1 0.8478000164031982,0.15479999780654907 l0.06379999965429306,-0.7131999731063843 zm-0.6862999796867371,-0.5447999835014343 l0.6998999714851379,-1.031499981880188 h-0.6290000081062317 l-0.4799000024795532,0.6222000122070312 l-0.4810999929904938,-0.6222000122070312 h-0.6434000134468079 l0.6995999813079834,1.031499981880188 zm1.6191999912261963,4.134900093078613 h0.9473000168800354 V8.474462509155273 h0.01360000018030405 l1.2164000272750854,1.766800045967102 h1.200700044631958 l-1.5259000062942505,-2.0146000385284424 l1.3566999435424805,-1.6260000467300415 h-1.1168999671936035 l-1.13100004196167,1.4565000534057617 h-0.01360000018030405 V4.940462589263916 h-0.9473000168800354 v5.30079984664917 zm3.675100088119507,-1.7948999404907227 a1.905060052871704,1.905060052871704 0 0 0 3.809799909591675,0 a1.905060052871704,1.905060052871704 0 1 0 -3.809799909591675,0 zm0.9901000261306763,-0.11339999735355377 a0.9277999997138977,0.9277999997138977 0 1 1 1.829800009727478,0 c0,0.607699990272522 -0.1907999962568283,1.2580000162124634 -0.91839998960495,1.2580000162124634 c-0.7208999991416931,0 -0.9114000201225281,-0.6571000218391418 -0.9114000201225281,-1.2580000162124634 zm3.5833001136779785,1.9083000421524048 h0.9473000168800354 V4.940462589263916 h-0.9473000168800354 v5.30079984664917 zm2.1347999572753906,-2.635999917984009 a1.9012600183486938,1.9012600183486938 0 0 1 1.124500036239624,-0.39570000767707825 c0.5583999752998352,0 0.8195000290870667,0.1973000019788742 0.8195000290870667,0.7838000059127808 h-0.5235999822616577 a2.8874399662017822,2.8874399662017822 0 0 0 -1.222000002861023,0.2117999941110611 a1.0702300071716309,1.0702300071716309 0 0 0 -0.6222000122070312,1.0393999814987183 a1.1613800525665283,1.1613800525665283 0 0 0 1.2725000381469727,1.0820000171661377 a1.2999999523162842,1.2999999523162842 0 0 0 1.1232999563217163,-0.6290000081062317 h0.014499999582767487 a4.451429843902588,4.451429843902588 0 0 0 0.04170000180602074,0.5436999797821045 h0.8342000246047974 c-0.0215000007301569,-0.2825999855995178 -0.0348999984562397,-0.536899983882904 -0.04280000180006027,-0.8126999735832214 c-0.006800000090152025,-0.26930001378059387 -0.013299999758601189,-0.5440000295639038 -0.013299999758601189,-0.9115999937057495 v-0.46630001068115234 c0,-1.0743999481201172 -0.45980000495910645,-1.5339000225067139 -1.5698000192642212,-1.5339000225067139 a3.2434799671173096,3.2434799671173096 0 0 0 -1.2646000385284424,0.2759000062942505 l0.02810000069439411,0.8126000165939331 zm0.48100000619888306,1.5831999778747559 c0,-0.5583999752998352 0.6287000179290771,-0.6290000081062317 1.0528000593185425,-0.6290000081062317 h0.41019999980926514 a1.2034499645233154,1.2034499645233154 0 0 1 -0.19840000569820404,0.7488999962806702 a0.8037199974060059,0.8037199974060059 0 0 1 -0.6636000275611877,0.32510000467300415 c-0.3398999869823456,0 -0.6010000109672546,-0.13429999351501465 -0.6010000109672546,-0.4449999928474426 zM28.86774444580078,18.291362762451172 h0.9901000261306763 V14.135162353515625 h1.413699984550476 v-0.7768999934196472 H27.45384407043457 v0.7768999934196472 h1.4139000177383423 v4.156199932098389 zm2.318700075149536,0 V14.650861740112305 h0.8407999873161316 v0.8274000287055969 h0.014399999752640724 a1.1130000352859497,1.1130000352859497 0 0 1 0.996999979019165,-0.911300003528595 a1.0416799783706665,1.0416799783706665 0 0 1 0.2890999913215637,0.02800000086426735 v0.954200029373169 a0.9667900204658508,0.9667900204658508 0 0 0 -0.423799991607666,-0.07739999890327454 c-0.7700999975204468,0 -0.7700999975204468,0.9606000185012817 -0.7700999975204468,1.4842000007629395 v1.3353999853134155 zm6.071000099182129,-3.640500068664551 h-0.9473000168800354 v1.781499981880188 c0,0.4666000008583069 -0.14800000190734863,1.2086999416351318 -0.8342999815940857,1.2086999416351318 c-0.6074000000953674,0 -0.6141999959945679,-0.6008999943733215 -0.6141999959945679,-1.0460000038146973 V14.650861740112305 h-0.9473999738693237 v2.2973999977111816 c0,0.8206999897956848 0.37450000643730164,1.4284000396728516 1.2365000247955322,1.4284000396728516 a1.522130012512207,1.522130012512207 0 0 0 1.1953999996185303,-0.5796999931335449 h0.013299999758601189 v0.4943999946117401 h0.8980000019073486 V14.650861740112305 zm1.2861000299453735,2.5452001094818115 a1.0709999799728394,1.0709999799728394 0 0 0 1.152500033378601,1.1806000471115112 a2.5085299015045166,2.5085299015045166 0 0 0 0.6995999813079834,-0.08529999852180481 l-0.02800000086426735,-0.7488999962806702 a0.8409000039100647,0.8409000039100647 0 0 1 -0.43149998784065247,0.09860000014305115 c-0.36000001430511475,0 -0.44530001282691956,-0.2890999913215637 -0.44530001282691956,-0.6008999943733215 V15.343862533569336 h0.8410999774932861 v-0.6930000185966492 h-0.8410999774932861 V13.6192626953125 l-0.9473000168800354,0.30390000343322754 v0.7276999950408936 h-0.6995999813079834 v0.6930000185966492 h0.6995999813079834 v1.8522000312805176 zm2.4386000633239746,1.0952999591827393 h0.9473999738693237 V16.509761810302734 c0,-0.46630001068115234 0.14790000021457672,-1.2086999416351318 0.8342000246047974,-1.2086999416351318 c0.607699990272522,0 0.614300012588501,0.6010000109672546 0.614300012588501,1.0463000535964966 v1.944000005722046 h0.9473000168800354 V15.994161605834961 c0,-0.8198000192642212 -0.37450000643730164,-1.4271999597549438 -1.2365000247955322,-1.4271999597549438 a1.3601700067520142,1.3601700067520142 0 0 0 -1.1952999830245972,0.5795999765396118 h-0.013399999588727951 v-0.49570000171661377 h-0.8980000019073486 v3.640500068664551 zm4.085599899291992,-1.7948999404907227 a1.905060052871704,1.905060052871704 0 0 0 3.809799909591675,0 a1.905060052871704,1.905060052871704 0 1 0 -3.809799909591675,0 zm0.9898999929428101,-0.11339999735355377 a0.9277600049972534,0.9277600049972534 0 1 1 1.829699993133545,0 c0,0.6078000068664551 -0.19050000607967377,1.2580000162124634 -0.9180999994277954,1.2580000162124634 c-0.7208999991416931,0 -0.9115999937057495,-0.6570000052452087 -0.9115999937057495,-1.2580000162124634 zm4.5096001625061035,1.9083000421524048 h1.067199945449829 l1.3420000076293945,-3.640500068664551 h-0.9462000131607056 l-0.876800000667572,2.650599956512451 h-0.014499999582767487 l-0.9047999978065491,-2.650599956512451 H49.217044830322266 l1.3502000570297241,3.640500068664551 zm2.134500026702881,0.7770000100135803 l0.45179998874664307,-1.7668999433517456 h1.0259000062942505 l-0.6434999704360962,1.7668999433517456 zm7.083799839019775,-5.618299961090088 a3.7372500896453857,3.7372500896453857 0 0 0 -1.1806999444961548,-0.17720000445842743 c-0.8698999881744385,0 -1.7243000268936157,0.4025999903678894 -1.7243000268936157,1.5058000087738037 c0,1.6325000524520874 2.162600040435791,1.2436000108718872 2.162600040435791,2.1840999126434326 c0,0.4449999928474426 -0.5023000240325928,0.6358000040054321 -0.876800000667572,0.6358000040054321 a2.379080057144165,2.379080057144165 0 0 1 -1.1166000366210938,-0.30390000343322754 l-0.09179999679327011,0.8901000022888184 a4.305500030517578,4.305500030517578 0 0 0 1.2645000219345093,0.19189999997615814 c0.9966999888420105,0 1.8522000312805176,-0.41040000319480896 1.8522000312805176,-1.4912999868392944 c0,-1.6548999547958374 -2.162600040435791,-1.2936999797821045 -2.162600040435791,-2.149199962615967 a0.6861600279808044,0.6861600279808044 0 0 1 0.7770000100135803,-0.6851999759674072 a2.5525600910186768,2.5525600910186768 0 0 1 1.0042999982833862,0.21209999918937683 l0.09220000356435776,-0.8130000233650208 zm-0.7713000178337097,-0.37450000643730164 l0.6578999757766724,-0.7781000137329102 h-0.6578999757766724 l-0.45190000534057617,0.45980000495910645 l-0.45179998874664307,-0.45980000495910645 h-0.6718000173568726 l0.6570000052452087,0.7781000137329102 zm1.8946000337600708,5.215799808502197 h0.9473999738693237 V16.52456283569336 h0.01360000018030405 l1.2163000106811523,1.766800045967102 h1.2007999420166016 l-1.5259000062942505,-2.0146000385284424 l1.356600046157837,-1.6259000301361084 H63.00114440917969 l-1.1312999725341797,1.4564000368118286 h-0.01360000018030405 V12.990562438964844 h-0.9473999738693237 v5.30079984664917 zm3.675100088119507,-1.7948999404907227 a1.905060052871704,1.905060052871704 0 0 0 3.809799909591675,0 a1.905060052871704,1.905060052871704 0 1 0 -3.809799909591675,0 zm0.9901999831199646,-0.11339999735355377 a0.9277999997138977,0.9277999997138977 0 1 1 1.829800009727478,0 c0,0.6078000068664551 -0.19050000607967377,1.2580000162124634 -0.9182000160217285,1.2580000162124634 c-0.7210999727249146,0 -0.9115999937057495,-0.6570000052452087 -0.9115999937057495,-1.2580000162124634 zm3.5833001136779785,1.9083000421524048 h0.9473000168800354 V12.990562438964844 h-0.9473000168800354 v5.30079984664917 zm1.944000005722046,0 h0.9476000070571899 V16.509761810302734 c0,-0.46630001068115234 0.14800000190734863,-1.2086999416351318 0.833899974822998,-1.2086999416351318 c0.6078000068664551,0 0.6146000027656555,0.6010000109672546 0.6146000027656555,1.0463000535964966 v1.944000005722046 h0.9473000168800354 V15.994161605834961 c0,-0.8198000192642212 -0.37439998984336853,-1.4271999597549438 -1.2367000579833984,-1.4271999597549438 a1.3595999479293823,1.3595999479293823 0 0 0 -1.195099949836731,0.5795999765396118 h-0.013299999758601189 v-0.49570000171661377 h-0.8982999920845032 v3.640500068664551 zm5.287700176239014,0 V14.650861740112305 h-0.9476000070571899 v3.640500068664551 zm-0.8982999920845032,-4.134900093078613 H76.07734680175781 l0.9685999751091003,-1.031499981880188 H76.07734680175781 l-0.5864999890327454,1.031499981880188 zm3.9310998916625977,0.3610999882221222 l0.4943999946117401,0.6424000263214111 l0.8342000246047974,-0.6783999800682068 v3.809799909591675 h0.9898999929428101 V13.358262062072754 h-0.876800000667572 L79.42194366455078,14.517562866210938 zm5.328800201416016,3.123500108718872 c-0.7275999784469604,0 -0.72079998254776,-1.1806000471115112 -0.72079998254776,-1.8016999959945679 c0,-0.636900007724762 0,-1.830899953842163 0.72079998254776,-1.830899953842163 c0.7355999946594238,0 0.7355999946594238,1.194000005722046 0.7355999946594238,1.830899953842163 c0,0.6211000084877014 0.006599999964237213,1.8016999959945679 -0.7355999946594238,1.8016999959945679 zm0,0.7355999946594238 c1.4284000396728516,0 1.7244000434875488,-1.3926000595092773 1.7244000434875488,-2.5373001098632812 c0,-1.1456999778747559 -0.2824000120162964,-2.566499948501587 -1.7244000434875488,-2.566499948501587 c-1.3353999853134155,0 -1.7098000049591064,1.3286000490188599 -1.7098000049591064,2.566499948501587 c0,1.031599998474121 0.1907999962568283,2.5373001098632812 1.7098000049591064,2.5373001098632812 zm2.5304999351501465,-3.859100103378296 l0.4943999946117401,0.6424000263214111 l0.8342000246047974,-0.6783999800682068 v3.809799909591675 h0.9901999831199646 V13.358262062072754 h-0.876800000667572 z" id="svg_8"/></g></svg>